Coordinates
version=1
nRows=5
nColumns=40
inDegrees=yes

Units are S.I. units (second, meters, Newtons, ...)
Angles are in degrees.

endheader
time	pelvis_tilt	pelvis_list	pelvis_rotation	pelvis_tx	pelvis_ty	pelvis_tz	hip_flexion_r	hip_adduction_r	hip_rotation_r	knee_angle_r	knee_angle_r_beta	ankle_angle_r	subtalar_angle_r	mtp_angle_r	hip_flexion_l	hip_adduction_l	hip_rotation_l	knee_angle_l	knee_angle_l_beta	ankle_angle_l	subtalar_angle_l	mtp_angle_l	lumbar_extension	lumbar_bending	lumbar_rotation	arm_flex_r	arm_add_r	arm_rot_r	elbow_flex_r	pro_sup_r	wrist_flex_r	wrist_dev_r	arm_flex_l	arm_add_l	arm_rot_l	elbow_flex_l	pro_sup_l	wrist_flex_l	wrist_dev_l
     37.32000000	     -4.17890275	     -2.86247087	     -4.54077805	      0.93592447	      0.92623619	      0.43691367	     27.47431987	     -1.21034469	    -13.90320852	     17.01333193	     17.01333193	      3.79145111	      1.58489999	      7.31355463	      0.64019742	     -2.32188351	    -14.31559914	     11.33599676	     11.33599676	     15.47939268	     -7.27043648	     -7.03588410	     -9.12756436	      5.81396224	      1.66714336	    -15.30469526	    -11.48654367	    -11.14231781	     21.72712926	     46.52850113	      0.00000000	      0.00000000	     28.99140115	    -17.61823089	     -7.56510644	     65.68710129	     46.89396358	      0.00000000	      0.00000000
     37.33157143	     -4.22873161	     -2.75571483	     -4.58149278	      0.93781122	      0.92457224	      0.43838488	     27.25811635	     -1.09853536	    -14.06313690	     16.95376605	     16.95376605	      3.74324654	      1.50963236	      7.34143288	      0.08061933	     -2.25962664	    -14.27801722	     11.37807022	     11.37807022	     15.95438524	     -7.33057135	     -7.17481345	     -8.78519877	      5.66764501	      1.40030338	    -16.11720311	    -11.55783656	    -11.16859840	     21.47806394	     46.53475419	      0.00000000	      0.00000000	     29.15011337	    -17.80612497	     -7.66677927	     65.84011731	     46.90629718	      0.00000000	      0.00000000
     37.34314286	     -4.20581079	     -2.71965377	     -4.55474978	      0.93993200	      0.92312915	      0.43989496	     26.88668210	     -0.96586074	    -14.20997187	     17.07290248	     17.07290248	      3.70044725	      1.40407059	      7.25683610	     -0.57063902	     -2.28301363	    -14.20389278	     11.42903094	     11.42903094	     16.38217965	     -7.30093517	     -7.23759631	     -8.49621701	      5.66247811	      1.28282186	    -17.01959031	    -11.60464503	    -11.19391127	     21.23356582	     46.53986451	      0.00000000	      0.00000000	     29.22175766	    -17.94978058	     -7.80077014	     66.10962050	     46.92259012	      0.00000000	      0.00000000
     37.35471429	     -4.00056850	     -2.74983557	     -4.57716552	      0.94226021	      0.92189557	      0.44174397	     26.27624501	     -0.73265992	    -14.08999160	     17.25991139	     17.25991139	      2.58767451	      0.79806299	      3.57576616	     -1.27620857	     -2.52435036	    -14.81755866	     11.97434962	     11.97434962	     18.19133228	     -5.71767258	     -5.09815445	     -8.58656297	      5.65038583	      1.24403838	    -18.33932793	    -11.67409330	    -11.10430519	     23.05032848	     46.45891289	      0.00000000	      0.00000000	     28.41849885	    -17.83335999	     -8.89533567	     68.73004890	     47.08480011	      0.00000000	      0.00000000
     37.36628571	     -3.94022618	     -2.77792252	     -4.56244914	      0.94448992	      0.92062966	      0.44361616	     25.94842668	     -0.54762856	    -13.82459817	     17.84063022	     17.84063022	      2.01221445	     -0.01993451	      1.25167959	     -1.80602849	     -2.72241951	    -14.98377511	     12.43406334	     12.43406334	     19.14293366	     -5.28991191	     -3.90712527	     -8.36993716	      5.65836268	      1.29845774	    -18.94740510	    -11.68087865	    -10.56177715	     22.80349097	     46.44577096	      0.00000000	      0.00000000	     28.36615622	    -17.59638758	     -9.12612034	     69.11640784	     47.15462136	      0.00000000	      0.00000000
